# xmcd
#
# Track frame offsets: 
#        150
#        18608
#        33224
#        45212
#        66064
#        84959
#        98978
#        115202
#        137195
#        155907
#        173971
#        195751
#
# Disc length: 2844 seconds
#
# Revision: 0
# Processed by: cddbd v1.5.2PL0 Copyright (c) Steve Scherf et al.
# Submitted via: ExactAudioCopyFreeDBPlugin 1.0
#
DISCID=930b1a0c
DTITLE=Band Of Skulls - Himalayan
DYEAR=2014
DGENRE=Blues Rock
TTITLE0=Asleep At The Wheel
TTITLE1=Himalayan
TTITLE2=Hoochie Coochie
TTITLE3=Cold Sweat
TTITLE4=Nightmares
TTITLE5=Brothers And Sisters
TTITLE6=I Guess I Know You Fairly Well
TTITLE7=You Are All That I Am Not
TTITLE8=I Feel Like Ten Men,  Nine Dead And One Dying.
TTITLE9=Toreador
TTITLE10=Heaven's Key
TTITLE11=Get Yourself Together
EXTD=
EXTT0=
EXTT1=
EXTT2=
EXTT3=
EXTT4=
EXTT5=
EXTT6=
EXTT7=
EXTT8=
EXTT9=
EXTT10=
EXTT11=
PLAYORDER=
